Coordinates
version=1
nRows=11
nColumns=40
inDegrees=yes

Units are S.I. units (second, meters, Newtons, ...)
If the header above contains a line with 'inDegrees', this indicates whether rotational values are in degrees (yes) or radians (no).

endheader
time	pelvis_tilt	pelvis_list	pelvis_rotation	pelvis_tx	pelvis_ty	pelvis_tz	hip_flexion_r	hip_adduction_r	hip_rotation_r	knee_angle_r	knee_angle_r_beta	ankle_angle_r	subtalar_angle_r	mtp_angle_r	hip_flexion_l	hip_adduction_l	hip_rotation_l	knee_angle_l	knee_angle_l_beta	ankle_angle_l	subtalar_angle_l	mtp_angle_l	lumbar_extension	lumbar_bending	lumbar_rotation	arm_flex_r	arm_add_r	arm_rot_r	elbow_flex_r	pro_sup_r	wrist_flex_r	wrist_dev_r	arm_flex_l	arm_add_l	arm_rot_l	elbow_flex_l	pro_sup_l	wrist_flex_l	wrist_dev_l
      0.68400000	     14.00755809	     -3.44457370	     -0.97886837	      0.99484465	      0.93152227	     -0.28809560	    -29.77493053	      4.42573196	     -4.56649528	     22.11738171	      0.38602113	     -5.23673613	      0.00000000	      0.00000000	     18.18670243	     -2.83967750	      0.25578859	     18.81104624	      0.32831469	    -14.31249146	      0.00000000	      0.00000000	    -28.12337885	      2.29070514	      7.22116745	     17.72329419	    -20.22217544	     21.12767678	     51.30765084	     72.05445300	      0.00000000	      0.00000000	     -0.86932367	    -19.36371730	     15.95276604	     42.83668310	     78.26429715	      0.00000000	      0.00000000
      0.68800000	     13.96087338	     -3.38128842	     -1.04534647	      1.00143652	      0.93093487	     -0.28816116	    -29.77131229	      4.27218892	     -4.17026527	     22.67580104	      0.39576739	     -5.84272008	      0.00000000	      0.00000000	     18.24631270	     -2.73664678	      0.41096454	     19.30369695	      0.33691307	    -15.26687823	      0.00000000	      0.00000000	    -28.01588508	      2.14023171	      7.16497065	     17.51680063	    -20.08420411	     21.01872272	     51.15346091	     72.07086256	      0.00000000	      0.00000000	     -0.94456426	    -19.39566360	     15.89971391	     42.74208289	     78.21162776	      0.00000000	      0.00000000
      0.69200000	     13.97493230	     -3.33597558	     -1.09833911	      1.00797446	      0.93063365	     -0.28820181	    -29.77825653	      4.11004839	     -4.04640149	     23.27081677	      0.40615237	     -6.72360485	      0.00000000	      0.00000000	     18.31368154	     -2.70587478	      0.16370508	     19.78251082	      0.34526995	    -16.51127154	      0.00000000	      0.00000000	    -27.97873769	      2.00786554	      7.12176866	     17.34867127	    -19.89436459	     20.83837341	     50.85557518	     72.12845158	      0.00000000	      0.00000000	     -0.98019555	    -19.42114584	     15.92627024	     42.62401918	     78.13273784	      0.00000000	      0.00000000
      0.69600000	     13.96427315	     -3.20067280	     -1.18219567	      1.01439752	      0.93034882	     -0.28833326	    -29.76674983	      3.88694493	     -3.57494600	     23.85505293	      0.41634922	     -7.34832708	      0.00000000	      0.00000000	     18.35836147	     -2.53325664	      0.44312127	     20.28906182	      0.35411093	    -16.92609743	      0.00000000	      0.00000000	    -27.92982034	      1.78198124	      7.04468075	     17.17992130	    -19.72777812	     20.74565515	     50.66329652	     72.14589628	      0.00000000	      0.00000000	     -0.99498314	    -19.41760047	     15.92787883	     42.52270075	     78.11757311	      0.00000000	      0.00000000
      0.70000000	     14.01847258	     -3.09885244	     -1.16245953	      1.02104730	      0.93016915	     -0.28850331	    -29.76509091	      3.70457325	     -3.44981694	     24.50222719	      0.42764454	     -8.41983326	      0.00000000	      0.00000000	     18.50270907	     -2.44609880	      0.39435257	     21.18659684	      0.36977587	    -17.25355440	      0.00000000	      0.00000000	    -27.92018430	      1.61989497	      6.93633224	     16.94409702	    -19.49254076	     20.42023165	     50.33743559	     72.21916339	      0.00000000	      0.00000000	     -1.16406033	    -19.42433714	     15.65786029	     42.64421830	     78.07419856	      0.00000000	      0.00000000
      0.70400000	     14.04007116	     -2.98215573	     -1.15819881	      1.02783187	      0.92992578	     -0.28866847	    -29.76292420	      3.51822254	     -3.22217385	     25.09022564	      0.43790705	     -9.39069505	      0.00000000	      0.00000000	     18.66788767	     -2.30204435	      0.53471190	     22.14827990	      0.38656041	    -17.36056575	      0.00000000	      0.00000000	    -27.85351932	      1.44333581	      6.75437593	     16.73873064	    -19.30691333	     20.29719914	     50.08835558	     72.38222593	      0.00000000	      0.00000000	     -1.28407987	    -19.46617654	     15.57510856	     42.60224565	     78.06154060	      0.00000000	      0.00000000
      0.70800000	     14.05755713	     -2.88068830	     -1.06696947	      1.03473988	      0.92978659	     -0.28925192	    -29.75405088	      3.37272375	     -3.03529429	     25.65287421	      0.44772712	    -10.48553651	      0.00000000	      0.00000000	     18.80199338	     -2.09148795	      0.85091871	     23.06468147	      0.40255463	    -17.63145357	      0.00000000	      0.00000000	    -27.78622477	      1.35660346	      6.49750714	     16.52063805	    -19.12769629	     20.12903064	     49.79672360	     72.55728439	      0.00000000	      0.00000000	     -1.38195381	    -19.40461794	     15.33608688	     42.43537278	     78.00199880	      0.00000000	      0.00000000
      0.71200000	     14.09279484	     -2.77632039	     -0.99414106	      1.04157340	      0.92972730	     -0.28924116	    -29.74577861	      3.27402758	     -2.80461009	     26.21706015	      0.45757402	    -11.61392623	      0.00000000	      0.00000000	     18.86418323	     -1.91145284	      1.21665468	     23.93999283	      0.41783170	    -17.93645075	      0.00000000	      0.00000000	    -27.73579744	      1.19630899	      6.26434984	     16.29639079	    -18.86266282	     19.98013966	     49.46407979	     72.71108454	      0.00000000	      0.00000000	     -1.45706341	    -19.51791952	     15.42209289	     42.37967496	     78.03748703	      0.00000000	      0.00000000
      0.71600000	     14.10242455	     -2.62817814	     -0.86162595	      1.04893641	      0.92962261	     -0.28980870	    -29.74212389	      3.10555937	     -2.76036614	     26.72266808	      0.46639854	    -12.93826067	      0.00000000	      0.00000000	     18.93095672	     -1.65053501	      1.48236746	     24.90004545	      0.43458778	    -18.06126085	      0.00000000	      0.00000000	    -27.58853858	      1.06934440	      5.95591528	     15.98845359	    -18.64998930	     19.81226369	     49.13858619	     72.95894216	      0.00000000	      0.00000000	     -1.63548641	    -19.54855652	     15.32753935	     42.30447636	     77.99335957	      0.00000000	      0.00000000
      0.72000000	     14.16549096	     -2.46309399	     -0.74685580	      1.05613750	      0.92974631	     -0.29014287	    -29.73598370	      2.92365580	     -2.74116806	     27.29625611	      0.47640954	    -14.31078873	      0.00000000	      0.00000000	     18.88148168	     -1.40416507	      1.66643452	     25.73868287	      0.44922476	    -18.19764509	      0.00000000	      0.00000000	    -27.52884063	      0.89658567	      5.67438881	     15.74328201	    -18.35835662	     19.54216774	     48.66706880	     73.15486113	      0.00000000	      0.00000000	     -1.78524230	    -19.62708737	     15.37414844	     42.31866568	     78.02123865	      0.00000000	      0.00000000
      0.72400000	     14.27760495	     -2.30414766	     -0.70549692	      1.06338312	      0.93006863	     -0.29058116	    -29.72820898	      2.65244375	     -2.82707507	     27.91506367	      0.48720977	    -15.81781020	      0.00000000	      0.00000000	     18.69936034	     -1.15318822	      1.93092182	     26.47572012	      0.46208849	    -18.11151574	      0.00000000	      0.00000000	    -27.50932690	      0.72925910	      5.44597142	     15.44209490	    -18.13054137	     19.31895045	     48.31372088	     73.29795833	      0.00000000	      0.00000000	     -1.87116691	    -19.61449962	     15.26726810	     42.12925373	     77.99492195	      0.00000000	      0.00000000
